<?xml version="1.0" encoding="UTF-8" standalone="no"?>
<svg
   id="Capa_1"
   data-name="Capa 1"
   viewBox="0 0 359.65 359.88"
   version="1.1"
   sodipodi:docname="icono_clean.svg"
   inkscape:version="1.1.2 (b8e25be8, 2022-02-05)"
   xmlns:inkscape="http://www.inkscape.org/namespaces/inkscape"
   xmlns:sodipodi="http://sodipodi.sourceforge.net/DTD/sodipodi-0.dtd"
   xmlns="http://www.w3.org/2000/svg"
   xmlns:svg="http://www.w3.org/2000/svg">
  <sodipodi:namedview
     id="namedview139"
     pagecolor="#ffffff"
     bordercolor="#666666"
     borderopacity="1.0"
     inkscape:pageshadow="2"
     inkscape:pageopacity="0.0"
     inkscape:pagecheckerboard="0"
     showgrid="false"
     inkscape:zoom="1.3476714"
     inkscape:cx="169.92272"
     inkscape:cy="239.30165"
     inkscape:window-width="1280"
     inkscape:window-height="713"
     inkscape:window-x="1280"
     inkscape:window-y="23"
     inkscape:window-maximized="0"
     inkscape:current-layer="Capa_1" />
  <defs
     id="defs122">
    <style
       id="style120">.cls-1{fill:#ef4444;}.cls-2{fill:#fff;}.cls-3{fill:#3b82f6;}</style>
  </defs>
  <path
     class="cls-2"
     d="M275.84,169.74H230.26V124.16a4.73,4.73,0,0,0-4.73-4.73H174.47a4.73,4.73,0,0,0-4.73,4.73v45.58H124.16a4.73,4.73,0,0,0-4.73,4.73v51.06a4.73,4.73,0,0,0,4.73,4.73h45.58v45.57a4.74,4.74,0,0,0,4.73,4.74h51.06a4.73,4.73,0,0,0,4.73-4.74V230.26h45.58a4.73,4.73,0,0,0,4.73-4.73V174.47A4.73,4.73,0,0,0,275.84,169.74Z"
     transform="translate(-20.17 -20.17)"
     id="path126" />
  <circle
     class="cls-3"
     cx="181.08798"
     cy="181.30797"
     id="circle128"
     r="179.83"
     style="fill:#5fbcd3" />
  <path
     style="fill:#ffffff;stroke-width:0.471152"
     d="m 139.65729,301.24121 c -2.79156,-0.72861 -4.89985,-1.93047 -7.08685,-4.04 -4.10788,-3.96236 -4.18606,-4.25848 -8.94404,-33.87722 l -2.43581,-15.16314 -4.10678,3.68039 c -2.25872,2.02421 -4.76353,4.1648 -5.56624,4.75688 -3.32133,2.44985 -7.36438,0.57002 -7.3435,-3.41437 0.006,-1.14957 0.34374,-2.38055 0.81195,-2.95968 0.44089,-0.54533 3.87931,-3.74517 7.64094,-7.11075 5.57793,-4.99067 6.79866,-6.30789 6.61892,-7.14209 -0.12122,-0.56258 -1.79116,-10.71142 -3.71097,-22.553 -1.91981,-11.84158 -3.58875,-21.97905 -3.70875,-22.52772 -0.14242,-0.65119 -0.8259,-1.18858 -1.96842,-1.54766 -2.65122,-0.83328 -6.21435,-3.8842 -7.87779,-6.74534 -5.286538,-9.09291 -1.23797,-20.26381 8.60707,-23.74881 1.50871,-0.53406 1.81271,-0.93532 2.75053,-3.63058 2.19716,-6.31453 6.20933,-11.54139 11.63524,-15.15776 4.47194,-2.98057 7.78192,-3.98415 14.06278,-4.26385 l 5.40986,-0.2409 0.7319,-1.97596 c 3.52248,-9.50986 13.27492,-19.5242 22.93002,-23.54578 13.18965,-5.4938 28.47122,-3.91526 40.04884,4.13693 5.93702,4.12916 12.20335,11.73145 14.87737,18.04914 0.52481,1.23994 0.98427,2.29541 1.02102,2.3455 0.0368,0.0501 1.31457,-0.34352 2.83963,-0.87467 4.33629,-1.51025 11.16491,-1.7294 15.84657,-0.50855 4.3585,1.13657 8.64845,3.21016 11.88324,5.74389 4.32687,3.38912 8.84399,10.16812 11.01832,16.53553 0.46139,1.35116 1.11591,2.58299 1.45448,2.73738 4.69584,2.14147 7.1233,3.69309 8.51228,5.44106 4.47982,5.63766 5.04082,12.83036 1.4786,18.95743 -1.66344,2.86114 -5.22657,5.91206 -7.87779,6.74534 -1.14611,0.36022 -1.82389,0.89442 -1.96361,1.54766 -0.11734,0.54867 -1.14793,6.67023 -2.29018,13.60346 -1.14226,6.93324 -2.34649,12.9412 -2.67607,13.35103 -0.91127,1.13315 -3.23141,1.9752 -4.66416,1.69276 -1.63221,-0.32175 -3.59067,-2.70133 -3.59012,-4.36206 2.4e-4,-0.70346 0.83538,-6.28759 1.85587,-12.40915 1.0205,-6.12157 1.85544,-11.45028 1.85544,-11.84158 0,-0.62067 -3.13066,-0.71145 -24.53454,-0.71145 h -24.53455 l -1.94708,2.65937 c -2.58329,3.52832 -6.79176,6.66346 -10.55274,7.86136 -5.51361,1.75613 -12.47967,1.07578 -17.08764,-1.66888 l -1.8699,-1.11378 -23.93833,21.456 -23.93833,21.456 3.8606,23.56702 c 4.14113,25.2794 4.13202,25.2454 7.19166,26.85423 1.48397,0.78031 4.78752,0.83654 49.14759,0.83654 44.36008,0 47.66363,-0.0562 49.1476,-0.83654 2.9411,-1.54651 3.09879,-2.06422 6.04102,-19.83218 1.51167,-9.12902 2.97531,-17.03525 3.25253,-17.5694 0.70195,-1.35256 1.96509,-1.95 4.12275,-1.95 1.49079,0 2.07581,0.2827 3.0463,1.47206 0.73074,0.89554 1.20116,2.05685 1.20116,2.96529 0,0.82128 -1.16735,8.60943 -2.59411,17.30702 -1.89361,11.54345 -2.91214,16.55463 -3.77184,18.55734 -1.37925,3.21303 -4.65787,6.59935 -7.89691,8.15628 l -2.208,1.06134 -49.41255,0.0759 c -27.17692,0.0417 -50.03893,-0.0875 -50.80448,-0.28734 z M 149.57,210.09 c 11.73785,-10.51435 21.23915,-19.28789 21.11397,-19.49674 -0.12517,-0.20886 -11.28089,-0.37974 -24.7905,-0.37974 -19.3385,0 -24.5639,0.12721 -24.56761,0.59806 -0.0137,1.74195 6.26616,38.63373 6.55778,38.52454 0.18963,-0.071 9.9485,-8.73177 21.68636,-19.24612 z m 44.48733,-18.7094 c 2.53982,-1.07753 4.54264,-2.95818 5.9538,-5.59065 1.75748,-3.27853 1.89358,-8.10367 0.31557,-11.18733 -3.71115,-7.25204 -12.69447,-9.12832 -18.4952,-3.86298 -3.03959,2.75906 -4.09835,5.12284 -4.11507,9.18726 -0.0118,2.87695 0.18924,3.72012 1.42627,5.98059 3.049,5.57154 9.28698,7.86064 14.91463,5.47311 z m -25.51591,-14.36102 c 0.30762,-1.99374 1.15502,-4.90492 1.88311,-6.46928 l 1.32382,-2.84429 -29.57942,0.12985 -29.57941,0.12984 -1.24118,1.19613 c -3.46837,3.34247 -3.26014,7.99976 0.47088,10.53182 1.34613,0.91355 2.29263,0.94472 28.77741,0.94776 l 27.38549,0.003 0.5593,-3.62498 z m 98.47569,2.83079 c 1.57642,-0.96026 3.2471,-3.87494 3.2471,-5.66485 0,-1.78992 -1.67068,-4.70458 -3.2471,-5.66485 -1.17753,-0.71729 -4.13024,-0.79419 -30.49603,-0.79419 h -29.19226 l 1.31906,2.83405 c 0.72548,1.55874 1.57074,4.46531 1.87835,6.45905 l 0.5593,3.62498 h 27.31391 c 24.6157,0 27.4427,-0.0785 28.61767,-0.79419 z m -10.92009,-23.48115 c -1.2429,-3.0675 -3.45393,-6.24019 -6.06121,-8.69747 -6.85091,-6.45675 -16.52396,-7.62011 -24.5451,-2.95199 -4.75839,2.76929 -7.67546,1.50161 -9.26334,-4.02557 -3.29698,-11.47632 -12.3922,-20.42192 -23.90974,-23.5164 -3.99517,-1.0734 -11.75033,-1.0781 -15.7749,-0.009 -11.74091,3.11726 -20.90362,12.29907 -24.30151,24.35217 -1.25384,4.44766 -2.70314,5.03194 -9.48803,3.82502 -4.98249,-0.8863 -10.65263,0.70897 -14.92636,4.19948 -1.82036,1.48673 -4.72757,5.61554 -5.30642,7.53612 l -0.32444,1.0765 h 67.31281 67.31282 l -0.72458,-1.78829 z m -2.83398,83.62916 c -2.59427,-1.13772 -3.32751,-5.18329 -1.36572,-7.53519 0.92978,-1.11467 1.48755,-1.3424 3.28794,-1.3424 2.77332,0 4.4077,1.68538 4.4077,4.54525 0,3.34464 -3.35154,5.63851 -6.32992,4.33234 z M 234.87749,113.01129 c -6.60587,-2.87249 -10.1742,-8.25677 -10.19105,-15.37739 -0.0113,-4.6872 1.41314,-8.34701 4.47199,-11.49159 3.30723,-3.399916 6.07698,-4.672066 10.69672,-4.91302 5.26799,-0.274766 8.31984,0.959036 12.16041,4.916203 2.48458,2.560007 2.99713,3.407927 3.88774,6.431627 1.77589,6.02917 0.47096,11.78009 -3.7426,16.49392 -2.86658,3.20693 -6.21404,4.73088 -10.84425,4.9369 -3.17513,0.14129 -4.17954,-0.0142 -6.43896,-0.99665 z m 9.45191,-9.52594 c 1.81782,-1.25229 3.19895,-3.77862 3.19895,-5.85145 0,-5.28783 -6.15048,-8.7543 -10.58538,-5.96605 -1.93652,1.21751 -3.53528,4.70465 -3.14159,6.85232 0.93912,5.12318 6.49505,7.74345 10.52802,4.96518 z M 136.48185,97.91178 c -7.31209,-2.48061 -12.52603,-8.79074 -13.85196,-16.764216 -2.30254,-13.84651 9.90938,-26.407703 23.3609,-24.029033 10.67524,1.88773 17.58779,10.908796 17.01296,22.202384 -0.38346,7.533784 -4.6145,14.003955 -11.4286,17.476765 -3.15995,1.61048 -3.85184,1.77635 -7.92208,1.89927 -3.42051,0.1033 -5.09159,-0.0797 -7.17122,-0.78517 z m 12.29661,-10.34642 c 1.09347,-0.792509 2.62033,-2.368492 3.393,-3.502183 1.28854,-1.890569 1.40486,-2.387803 1.40486,-6.004753 0,-3.55444 -0.13853,-4.174563 -1.40416,-6.285569 -2.60859,-4.350951 -7.74316,-6.373463 -12.61999,-4.971018 -2.84642,0.81855 -6.637,4.605853 -7.45008,7.443638 -1.62968,5.687899 0.59863,11.208841 5.57037,13.801355 2.11065,1.1006 2.90926,1.25502 5.78333,1.1182 2.81745,-0.13412 3.64282,-0.38218 5.32267,-1.59967 z m 40.71967,-2.095072 c -1.00407,-1.035409 -1.35621,-1.852451 -1.35621,-3.146713 0,-2.478446 2.04658,-4.545252 4.50075,-4.545252 2.15686,0 3.52437,0.903252 4.30326,2.842343 1.87469,4.667159 -3.94802,8.458614 -7.4478,4.849622 z"
     id="path944" />
</svg>
