<?xml version="1.0" encoding="UTF-8" standalone="no"?>
<svg
   id="Capa_1"
   data-name="Capa 1"
   viewBox="0 0 364.53 364.35"
   version="1.1"
   sodipodi:docname="icono_otros.svg"
   inkscape:version="1.1.2 (b8e25be8, 2022-02-05)"
   xmlns:inkscape="http://www.inkscape.org/namespaces/inkscape"
   xmlns:sodipodi="http://sodipodi.sourceforge.net/DTD/sodipodi-0.dtd"
   xmlns="http://www.w3.org/2000/svg"
   xmlns:svg="http://www.w3.org/2000/svg">
  <sodipodi:namedview
     id="namedview234"
     pagecolor="#ffffff"
     bordercolor="#666666"
     borderopacity="1.0"
     inkscape:pageshadow="2"
     inkscape:pageopacity="0.0"
     inkscape:pagecheckerboard="0"
     showgrid="false"
     inkscape:zoom="1.3311376"
     inkscape:cx="321.90511"
     inkscape:cy="182.175"
     inkscape:window-width="1280"
     inkscape:window-height="713"
     inkscape:window-x="1280"
     inkscape:window-y="23"
     inkscape:window-maximized="0"
     inkscape:current-layer="Capa_1" />
  <defs
     id="defs201">
    <style
       id="style199">.cls-1{fill:#ef4444;}.cls-2{fill:#fff;}.cls-3{fill:#3b82f6;}.cls-4{fill:#34d399;}.cls-5{fill:#7c3aed;}</style>
  </defs>
  <circle
     class="cls-1"
     cx="182.54"
     cy="181.73"
     r="179.83"
     id="circle203" />
  <path
     class="cls-2"
     d="M275.84,169.74H230.26V124.16a4.73,4.73,0,0,0-4.73-4.73H174.47a4.73,4.73,0,0,0-4.73,4.73v45.58H124.16a4.73,4.73,0,0,0-4.73,4.73v51.06a4.73,4.73,0,0,0,4.73,4.73h45.58v45.57a4.74,4.74,0,0,0,4.73,4.74h51.06a4.73,4.73,0,0,0,4.73-4.74V230.26h45.58a4.73,4.73,0,0,0,4.73-4.73V174.47A4.73,4.73,0,0,0,275.84,169.74Z"
     transform="translate(-17.46 -18.27)"
     id="path205" />
  <circle
     class="cls-3"
     cx="182.54"
     cy="181.95"
     r="179.83"
     id="circle207" />
  <path
     class="cls-2"
     d="M149.66,184,102.81,221.8a4,4,0,0,0-1.5,3.13v43.83a4,4,0,0,0,4,4h46.86a4,4,0,0,0,4-4V187.15a4,4,0,0,0-2.29-3.63A4,4,0,0,0,149.66,184Zm-1.5,80.72h-38.8V226.86l38.8-31.3Z"
     transform="translate(-17.46 -18.27)"
     id="path209" />
  <path
     class="cls-2"
     d="M183.31,159.55l-12.09,7.56a4,4,0,0,0-1.9,3.41v98.24a4,4,0,0,0,4,4H220.2a4,4,0,0,0,4-4V199.24a4,4,0,0,0-1.12-2.79l-34.76-36.27A4,4,0,0,0,183.31,159.55Zm32.87,105.19h-38.8v-92l7.42-4.64,31.38,32.74Z"
     transform="translate(-17.46 -18.27)"
     id="path211" />
  <path
     class="cls-2"
     d="M269.23,168.41l-30.71,30.72a2.81,2.81,0,0,0-.83,2V270a2.83,2.83,0,0,0,2.83,2.83h30.71a2.83,2.83,0,0,0,2.82-2.83V170.41a2.82,2.82,0,0,0-4.82-2Zm-.82,98.74H243.34V202.29l25.07-25.07Z"
     transform="translate(-17.46 -18.27)"
     id="path213" />
  <path
     class="cls-2"
     d="M295.64,124.07l-66.45,48.86-38.68-40.49a4.78,4.78,0,0,0-5.73-.74L98.92,191.43c-5,3.45-.24,11.66,4.78,8.17q41.42-28.82,82.84-57.62l38.74,40.56c1.32,1.38,4.09,1.94,5.73.74q34.71-25.51,69.41-51C305.28,128.67,300.56,120.46,295.64,124.07Z"
     transform="translate(-17.46 -18.27)"
     id="path215" />
  <circle
     class="cls-4"
     cx="183.64"
     cy="180.89"
     r="180.89"
     id="circle217" />
  <path
     class="cls-2"
     d="M285.25,269.34a18.59,18.59,0,0,0,18.58-18.51l.34-102.66a18.61,18.61,0,0,0-18.51-18.64L117,129h-.06a18.59,18.59,0,0,0-18.58,18.51L98,250.15a18.56,18.56,0,0,0,18.51,18.64l168.65.55Zm-152-16h-5.71v-.1h-.37a9.39,9.39,0,0,1-9.37-9.43l.29-89.8a9.42,9.42,0,0,1,9.41-9.37h0L275,145.1a9.43,9.43,0,0,1,9.38,9.44l-.3,89.79a9.42,9.42,0,0,1-9.4,9.38h0l-141.43-.47Z"
     transform="translate(-17.46 -18.27)"
     id="path219" />
  <path
     class="cls-2"
     d="M264,160H224.86a2,2,0,0,0-2,2v52a2,2,0,0,0,2,2H264a2,2,0,0,0,1.95-2V162A2,2,0,0,0,264,160Zm-2,52H226.82V163.92H262Z"
     transform="translate(-17.46 -18.27)"
     id="path221" />
  <path
     class="cls-2"
     d="M136.58,215.88h60.61a3.91,3.91,0,0,0,0-7.82H136.58a3.91,3.91,0,0,0,0,7.82Z"
     transform="translate(-17.46 -18.27)"
     id="path223" />
  <path
     class="cls-2"
     d="M225.54,226.63h-89a3.91,3.91,0,0,0,0,7.82h89a3.91,3.91,0,0,0,0-7.82Z"
     transform="translate(-17.46 -18.27)"
     id="path225" />
  <circle
     class="cls-5"
     cx="182.18"
     cy="182.18"
     r="182.18"
     id="circle227"
     style="fill:#d35fbc" />
  <path
     style="fill:#ffffff;stroke-width:0.503306"
     d="m 92.827927,215.0002 c -9.302872,-2.33441 -16.883642,-8.66008 -21.081865,-17.59148 -2.375399,-5.05348 -3.111581,-8.25611 -3.129325,-13.61361 -0.017,-5.13231 0.795176,-9.30488 2.608716,-13.40234 4.98455,-11.26195 15.337038,-18.59432 27.305925,-19.34001 9.203802,-0.57341 17.556332,2.76295 24.263282,9.6918 6.45195,6.66541 9.21203,13.4611 9.21203,22.6813 0,5.75526 -0.85321,9.54757 -3.3175,14.74557 -2.35734,4.97238 -8.81868,11.66636 -13.6212,14.11162 -6.94016,3.53365 -15.04176,4.52345 -22.240063,2.71715 z m 85.741193,0.21838 c -11.14483,-2.4762 -20.24027,-11.15967 -23.71441,-22.6403 -1.71607,-5.67089 -1.6053,-13.48157 0.2704,-19.06755 2.2598,-6.72987 5.81693,-11.88994 10.86762,-15.76488 13.05143,-10.01321 30.36549,-8.8716 41.75541,2.75314 6.69868,6.83678 9.85957,15.30063 9.30512,24.91611 -0.47793,8.2884 -3.40055,14.86622 -9.30386,20.93981 -7.61522,7.83487 -18.68153,11.19633 -29.18028,8.86367 z m 84.96159,-0.0415 c -8.83922,-1.93758 -17.34123,-8.7152 -21.35395,-17.02291 -4.72563,-9.78367 -4.71224,-19.81646 0.0393,-29.47392 6.29659,-12.79761 20.54061,-19.88691 34.29074,-17.06663 25.26457,5.18201 34.46641,36.51069 16.15893,55.01484 -7.58443,7.6659 -18.52181,10.87507 -29.13507,8.54862 z"
     id="path426" />
</svg>
