<?xml version="1.0" encoding="UTF-8" standalone="no"?>
<svg
   id="Capa_1"
   data-name="Capa 1"
   viewBox="0 0 359.65 359.88"
   version="1.1"
   sodipodi:docname="icono_gustos.svg"
   inkscape:version="1.1.2 (b8e25be8, 2022-02-05)"
   xmlns:inkscape="http://www.inkscape.org/namespaces/inkscape"
   xmlns:sodipodi="http://sodipodi.sourceforge.net/DTD/sodipodi-0.dtd"
   xmlns="http://www.w3.org/2000/svg"
   xmlns:svg="http://www.w3.org/2000/svg">
  <sodipodi:namedview
     id="namedview139"
     pagecolor="#ffffff"
     bordercolor="#666666"
     borderopacity="1.0"
     inkscape:pageshadow="2"
     inkscape:pageopacity="0.0"
     inkscape:pagecheckerboard="0"
     showgrid="false"
     inkscape:zoom="1.3476714"
     inkscape:cx="185.50516"
     inkscape:cy="298.66331"
     inkscape:window-width="1280"
     inkscape:window-height="713"
     inkscape:window-x="1280"
     inkscape:window-y="23"
     inkscape:window-maximized="0"
     inkscape:current-layer="Capa_1" />
  <defs
     id="defs122">
    <style
       id="style120">.cls-1{fill:#ef4444;}.cls-2{fill:#fff;}.cls-3{fill:#3b82f6;}</style>
  </defs>
  <path
     class="cls-2"
     d="M275.84,169.74H230.26V124.16a4.73,4.73,0,0,0-4.73-4.73H174.47a4.73,4.73,0,0,0-4.73,4.73v45.58H124.16a4.73,4.73,0,0,0-4.73,4.73v51.06a4.73,4.73,0,0,0,4.73,4.73h45.58v45.57a4.74,4.74,0,0,0,4.73,4.74h51.06a4.73,4.73,0,0,0,4.73-4.74V230.26h45.58a4.73,4.73,0,0,0,4.73-4.73V174.47A4.73,4.73,0,0,0,275.84,169.74Z"
     transform="translate(-20.17 -20.17)"
     id="path126" />
  <circle
     class="cls-3"
     cx="181.08798"
     cy="181.30797"
     id="circle128"
     r="179.83"
     style="fill:#ff8080" />
  <path
     style="fill:#ffffff;stroke-width:0.46336"
     d="M 179.70489,307.57228 C 178.78252,307.3772 144.58088,275.64359 124.5881,256.4328 113.65686,245.92911 96.038231,226.81823 90.810327,219.79413 72.063704,194.60655 65.505573,172.17622 69.435072,146.6858 c 2.310345,-14.98707 8.701592,-28.74122 18.110805,-38.97496 7.717598,-8.393902 16.334703,-13.818571 26.435343,-16.64166 10.32418,-2.885573 21.96626,-2.529233 31.89267,0.976167 12.77505,4.51137 25.15519,16.098973 33.62084,31.468503 1.14246,2.07415 2.17697,3.77118 2.29891,3.77118 0.12195,0 1.15647,-1.69703 2.29892,-3.77118 9.91841,-18.00707 23.70148,-29.516168 39.8292,-33.258074 4.7711,-1.106976 12.82549,-1.431353 17.9737,-0.723859 13.55543,1.862855 24.50349,7.691476 34.14595,18.178923 15.63207,17.00191 22.4082,43.16157 17.70409,68.34765 -2.01999,10.81516 -7.31864,23.44448 -14.44406,34.42738 -5.25737,8.10354 -10.38021,14.47057 -20.7598,25.80182 -11.56751,12.62804 -18.17196,19.08067 -51.12068,49.94555 -24.09914,22.57498 -23.61925,22.20551 -27.71607,21.33904 z m 21.90841,-35.0046 c 29.07616,-27.19359 37.5682,-35.48494 47.82334,-46.69314 16.78863,-18.34888 25.39186,-31.80052 29.62229,-46.31617 2.27345,-7.80073 2.73443,-11.21898 2.70297,-20.0423 -0.0215,-6.03382 -0.23645,-8.77937 -0.97209,-12.41774 -4.03083,-19.93578 -15.38934,-35.00637 -30.70428,-40.73873 -8.16939,-3.05781 -18.384,-3.58235 -25.72032,-1.32081 -7.14872,2.20372 -14.12199,6.79006 -19.87658,13.0729 -6.29351,6.87123 -10.68725,14.75987 -16.31449,29.29143 -1.60106,4.13452 -3.25117,5.57677 -6.3805,5.57677 -3.12931,0 -4.77944,-1.44225 -6.38048,-5.57677 -5.62724,-14.53156 -10.02098,-22.4202 -16.31449,-29.29143 -3.97096,-4.33547 -8.00262,-7.52494 -12.5596,-9.936 -5.77124,-3.05349 -9.64677,-4.1141 -16.18607,-4.42962 -20.30482,-0.9797 -37.456653,11.99599 -45.027102,34.06386 -2.642473,7.70282 -3.468846,12.82704 -3.500509,21.70614 -0.03146,8.82332 0.429533,12.24157 2.702975,20.0423 4.208396,14.44004 12.805183,27.91428 29.404176,46.08687 5.00691,5.48158 12.57866,13.32499 16.82612,17.42981 13.13757,12.69636 50.79576,47.87241 51.12747,47.75751 0.17282,-0.0598 9.05005,-8.27906 19.72717,-18.26488 z"
     id="path1551" />
</svg>
