<?xml version="1.0" encoding="UTF-8" standalone="no"?>
<svg
   id="Capa_1"
   data-name="Capa 1"
   viewBox="0 0 359.65 359.88"
   version="1.1"
   sodipodi:docname="icono_vegetales.svg"
   inkscape:version="1.1.2 (b8e25be8, 2022-02-05)"
   xmlns:inkscape="http://www.inkscape.org/namespaces/inkscape"
   xmlns:sodipodi="http://sodipodi.sourceforge.net/DTD/sodipodi-0.dtd"
   xmlns="http://www.w3.org/2000/svg"
   xmlns:svg="http://www.w3.org/2000/svg">
  <sodipodi:namedview
     id="namedview139"
     pagecolor="#ffffff"
     bordercolor="#666666"
     borderopacity="1.0"
     inkscape:pageshadow="2"
     inkscape:pageopacity="0.0"
     inkscape:pagecheckerboard="0"
     showgrid="false"
     inkscape:zoom="0.95294761"
     inkscape:cx="75.555046"
     inkscape:cy="202.00481"
     inkscape:window-width="1280"
     inkscape:window-height="713"
     inkscape:window-x="1280"
     inkscape:window-y="23"
     inkscape:window-maximized="0"
     inkscape:current-layer="Capa_1" />
  <defs
     id="defs122">
    <style
       id="style120">.cls-1{fill:#ef4444;}.cls-2{fill:#fff;}.cls-3{fill:#3b82f6;}</style>
  </defs>
  <path
     class="cls-2"
     d="M275.84,169.74H230.26V124.16a4.73,4.73,0,0,0-4.73-4.73H174.47a4.73,4.73,0,0,0-4.73,4.73v45.58H124.16a4.73,4.73,0,0,0-4.73,4.73v51.06a4.73,4.73,0,0,0,4.73,4.73h45.58v45.57a4.74,4.74,0,0,0,4.73,4.74h51.06a4.73,4.73,0,0,0,4.73-4.74V230.26h45.58a4.73,4.73,0,0,0,4.73-4.73V174.47A4.73,4.73,0,0,0,275.84,169.74Z"
     transform="translate(-20.17 -20.17)"
     id="path126" />
  <circle
     class="cls-3"
     cx="181.08798"
     cy="181.30797"
     id="circle128"
     r="179.83"
     style="fill:#87de87" />
  <path
     style="fill:#ffffff;stroke-width:0.498018"
     d="m 174.49471,311.35717 c -8.91896,-1.53017 -15.76064,-5.09662 -17.95467,-9.35945 -0.37027,-0.71941 -0.66903,-5.45255 -0.85997,-13.62426 -0.32148,-13.75831 -0.7738,-17.08242 -3.58517,-26.34814 -4.50136,-14.83554 -14.10081,-31.34831 -26.63341,-45.81425 l -4.2081,-4.85726 -3.80295,0.61384 c -5.31535,0.85794 -16.92281,0.29955 -22.00668,-1.05867 C 78.525791,206.38914 66.110322,192.1368 63.480001,174.2162 60.77473,155.78493 71.052307,136.51872 87.958758,128.32865 l 2.833402,-1.3726 0.06946,-6.42275 c 0.07953,-7.35354 1.105256,-12.35147 3.79967,-18.51426 2.29592,-5.251312 3.69486,-6.952173 5.71813,-6.952173 1.01651,0 1.99624,0.411259 2.62578,1.102225 1.29508,1.421422 1.01452,3.559652 -0.92269,7.032208 -3.15779,5.66051 -4.83105,14.61602 -3.92647,21.01496 1.07552,7.60818 0.81874,8.17782 -4.597764,10.19982 -13.273159,4.95492 -22.34777,17.50457 -23.233007,32.12987 -0.798114,13.18593 6.377628,26.45489 17.900628,33.10079 5.411193,3.1209 10.679243,4.49103 18.528743,4.81899 12.42941,0.5193 17.08923,-0.89834 22.54734,-6.85951 4.31988,-4.71804 7.20425,-6.16059 12.86765,-6.43544 4.17831,-0.20277 4.43052,-0.14567 10.78974,2.44284 12.116,4.93182 19.09818,6.31629 31.87774,6.32095 12.68263,0.005 18.24382,-1.0626 31.70487,-6.08433 7.46659,-2.78547 7.97628,-2.90314 11.25631,-2.59883 4.81244,0.44649 8.2265,2.24016 12.12342,6.36934 5.53539,5.86532 10.49458,7.35717 22.75394,6.84498 5.48737,-0.22927 7.7616,-0.56679 11.15347,-1.6553 10.43461,-3.34867 18.01481,-10.2317 22.4328,-20.3696 8.09852,-18.58358 -1.38997,-40.932 -20.38991,-48.02475 -5.45227,-2.03535 -5.65014,-2.48826 -4.56988,-10.46 1.86358,-13.7522 -5.81575,-28.58373 -18.41379,-35.56362 -5.81823,-3.223568 -9.20497,-4.02137 -17.07103,-4.02137 -6.16447,0 -7.62529,0.167918 -10.78231,1.239396 -5.50913,1.869773 -5.54005,1.850128 -9.89624,-6.288588 -1.85665,-3.468779 -7.07854,-8.802463 -11.21005,-11.450036 -6.08732,-3.900898 -12.09367,-5.674942 -19.21356,-5.674942 -7.11989,0 -13.12625,1.774044 -19.21357,5.674942 -4.13151,2.647573 -9.3534,7.981257 -11.21005,11.450036 -4.356,8.138353 -4.38685,8.15796 -9.89624,6.289549 -3.13126,-1.061913 -4.63425,-1.238572 -10.54462,-1.239395 -7.78348,-0.0011 -10.7705,0.659697 -16.56841,3.665223 -4.14464,2.148506 -5.4221,2.245723 -6.98396,0.531493 -2.21581,-2.431985 -1.18779,-4.685271 3.2625,-7.150934 8.45595,-4.684982 19.78895,-6.423082 28.37114,-4.351176 4.55652,1.100032 4.58624,1.090188 6.47098,-2.143568 4.98638,-8.555437 14.66503,-16.043413 24.66569,-19.082832 3.21758,-0.977893 5.01028,-1.155801 11.64654,-1.155801 6.63626,0 8.42895,0.177908 11.64653,1.155801 10.00066,3.039419 19.67931,10.527395 24.6657,19.082832 1.88473,3.233756 1.91445,3.2436 6.47097,2.143568 1.69944,-0.410279 5.36586,-0.754209 8.1476,-0.76429 12.7374,-0.04616 23.64432,4.940974 32.04833,14.653927 7.51086,8.680701 10.75889,17.512015 10.87774,29.576305 l 0.0633,6.42203 2.83482,1.37331 c 4.2272,2.04783 8.68103,5.31898 12.29733,9.03188 14.19512,14.57431 16.61238,36.71106 5.92386,54.2495 -5.76046,9.45215 -14.52927,16.14189 -25.00395,19.07554 -5.35948,1.50103 -16.55415,2.20085 -22.35203,1.39731 l -3.44749,-0.47779 -3.45943,3.94936 c -1.90269,2.17214 -4.82867,5.758 -6.50218,7.96856 -3.41648,4.5129 -4.89616,5.50267 -6.80172,4.54974 -1.61035,-0.80531 -2.55786,-3.2367 -1.88912,-4.84762 0.60959,-1.46842 5.09748,-7.4235 8.55255,-11.34857 l 2.58051,-2.93153 -1.58714,-1.19136 c -0.87294,-0.65525 -2.7754,-2.45295 -4.2277,-3.99488 l -2.64054,-2.80351 -5.93734,6.66553 c -9.18755,10.31439 -15.07465,19.17671 -20.81906,31.34061 -3.4115,7.22392 -4.46124,8.26171 -7.85202,7.76265 -2.06849,-0.30444 -4.5261,-2.66074 -4.59143,-4.40215 -0.0187,-0.49765 -0.49998,-8.41795 -1.06958,-17.60067 l -1.03563,-16.69584 -6.53633,-0.14516 -6.53632,-0.14516 v 1.70765 c 0,0.93921 -0.44506,8.75245 -0.98903,17.36275 -1.05694,16.73008 -1.30752,18.01633 -3.79068,19.45818 -1.36064,0.79006 -4.87482,0.53675 -5.93362,-0.42771 -0.40211,-0.36628 -1.92049,-3.21803 -3.37418,-6.33722 -5.46924,-11.73541 -14.12956,-24.5398 -23.34021,-34.50879 l -4.25071,-4.60069 -2.30752,2.64266 c -1.26913,1.45347 -3.13205,3.26981 -4.13982,4.03633 l -1.8323,1.39366 2.07274,2.39047 c 12.42982,14.33524 23.457,33.14196 28.12123,47.96045 3.04467,9.67303 3.67145,14.06147 3.94376,27.61255 l 0.24392,12.13832 1.38074,1.07909 c 4.09513,3.20047 12.617,4.86443 22.99001,4.48898 8.4384,-0.30543 13.24539,-1.36998 17.50819,-3.87733 l 2.4573,-1.44537 0.28191,-12.52188 c 0.23238,-10.32191 0.4701,-13.43335 1.35307,-17.70977 1.53114,-7.41566 3.42018,-13.05758 7.22411,-21.57602 4.57546,-10.24616 6.22187,-12.13552 9.11734,-10.46277 2.53364,1.4637 2.33654,3.47654 -1.00359,10.24907 -7.57513,15.35956 -9.60281,24.07344 -9.60727,41.2871 -0.001,5.61689 -0.22705,11.09939 -0.5013,12.18333 -1.38609,5.47819 -8.46403,9.54222 -19.69923,11.31092 -4.48426,0.70595 -15.28581,0.59169 -19.9655,-0.21117 z m -3.73484,-90.70498 c 0.42111,-6.77176 0.64853,-12.64731 0.50536,-13.05678 -0.15948,-0.45617 -1.31858,-0.88961 -2.99302,-1.11923 -3.73022,-0.51153 -13.45202,-3.5047 -17.73997,-5.46181 -1.93688,-0.88404 -3.60148,-1.51967 -3.69912,-1.41252 -0.0976,0.10715 1.27786,1.92873 3.05664,4.04796 7.18939,8.56543 13.26122,17.38399 17.4787,25.38559 1.25085,2.37318 2.35336,4.22806 2.45002,4.12197 0.0967,-0.10608 0.52028,-5.73341 0.94139,-12.50518 z m 35.72079,2.33992 c 4.20887,-6.99841 7.01593,-10.93798 13.32317,-18.69836 2.18045,-2.68281 3.86257,-4.87785 3.73803,-4.87785 -0.12453,0 -2.11965,0.80038 -4.43361,1.77863 -4.95739,2.09579 -12.19966,4.3149 -16.96825,5.19925 l -3.40147,0.63081 0.10372,1.80442 c 0.0571,0.99243 0.33286,6.14794 0.61291,11.4567 0.28005,5.30876 0.6285,10.47403 0.77433,11.47839 l 0.26515,1.82611 1.02342,-2.02407 c 0.56288,-1.11324 2.79605,-4.97156 4.9626,-8.57403 z M 109.0342,173.74317 c -2.15734,-1.79811 -3.94282,-9.403 -3.89468,-16.58863 0.0298,-4.45182 0.27417,-6.27318 1.30402,-9.72038 3.10343,-10.38804 10.23283,-18.09964 20.03891,-21.67532 2.78932,-1.0171 4.30392,-1.2121 9.36333,-1.20547 5.36727,0.007 6.18331,0.12834 7.36821,1.09532 1.77135,1.44557 2.06947,4.34883 0.61093,5.94966 -0.94639,1.03872 -1.31879,1.0885 -5.63263,0.75282 -3.05188,-0.23747 -5.58026,-0.14137 -7.45149,0.28323 -6.93894,1.57453 -12.9895,6.70038 -16.09197,13.63264 -3.08529,6.89383 -3.34136,12.91016 -0.8889,20.88433 l 1.25911,4.09398 -0.97068,1.43296 c -1.10335,1.62879 -3.68082,2.17618 -5.01416,1.06486 z m 146.54542,-0.74576 c -1.22866,-1.71438 -1.22958,-1.68296 0.17867,-6.16106 3.19309,-10.15373 1.20072,-20.20103 -5.42587,-27.36205 -5.07718,-5.48666 -11.12605,-7.74317 -19.09441,-7.12313 -4.31385,0.33568 -4.68625,0.2859 -5.63264,-0.75282 -1.45854,-1.60083 -1.16042,-4.50409 0.61093,-5.94966 1.1849,-0.96698 2.00094,-1.08829 7.36822,-1.09532 5.0594,-0.007 6.574,0.18837 9.36332,1.20547 9.80609,3.57568 16.93548,11.28728 20.03891,21.67532 2.12102,7.09965 1.77054,16.37233 -0.88014,23.28576 -1.08911,2.84058 -1.97876,3.65221 -4.00332,3.65221 -1.0958,0 -1.8219,-0.39553 -2.52367,-1.37472 z m -97.13519,-61.36514 c -0.43038,-0.3587 -0.99567,-1.28315 -1.2562,-2.05433 -1.22706,-3.6321 6.31232,-13.896144 13.03593,-17.747014 12.35106,-7.073929 26.14808,-4.832272 35.90743,5.834019 4.44938,4.862875 6.84568,9.611795 6.07479,12.038885 -0.5548,1.74678 -1.65912,2.58062 -3.4177,2.58062 -1.24079,0 -1.61123,-0.42723 -5.31605,-6.13112 -2.43967,-3.75609 -6.64874,-7.369579 -10.56936,-9.073803 -3.94283,-1.713875 -12.43342,-1.713875 -16.37624,0 -3.92062,1.704224 -8.1297,5.317713 -10.56937,9.073803 -3.7779,5.8164 -4.05672,6.13112 -5.43163,6.13112 -0.7145,0 -1.65122,-0.29348 -2.0816,-0.65218 z"
     id="path1802" />
</svg>
